<svg height="496pt" viewBox="0 0 496 496" width="496pt" xmlns="http://www.w3.org/2000/svg"><path d="m8 72v304h256v-304zm0 0" fill="#69d6f4"/><path d="m40 280h80v64h-80zm0 0" fill="#fcd770"/><path d="m40 104h64v64h-64zm0 0" fill="#fcd770"/><path d="m232 264 8.800781 80h-120.800781v-64h-80v-112h64v-64h128v48c-11.839844 0-22.160156 6.398438-27.679688 16-2.71875 4.71875-4.320312 10.160156-4.320312 16v48c0 17.679688 14.320312 32 32 32zm0 0" fill="#e6e9ed"/><path d="m264 40v32h-256v-32c0-17.679688 14.320312-32 32-32h192c17.679688 0 32 14.320312 32 32zm0 0" fill="#969faa"/><path d="m262.160156 408h1.839844c0 17.679688-14.320312 32-32 32h-192c-17.679688 0-32-14.320312-32-32v-32h236.238281l2 18c1.042969 8 7.839844 14 15.921875 14zm0 0" fill="#969faa"/><path d="m320 408v16c0 8.800781-7.199219 16-16 16h-16c-8.800781 0-16-7.199219-16-16v-16zm0 0" fill="#fcd770"/><path d="m360 264-14.238281 130c-1.042969 8-7.839844 14-15.921875 14h-67.679688c-8.082031 0-14.878906-6-15.921875-14l-2-18-3.4375-32-8.800781-80zm0 0" fill="#e6e9ed"/><path d="m248 152v32c0 8.800781 7.199219 16 16 16h64c8.800781 0 16-7.199219 16-16v-32h16c17.679688 0 32 14.320312 32 32v48c0 17.679688-14.320312 32-32 32h-128c-17.679688 0-32-14.320312-32-32v-48c0-5.839844 1.601562-11.28125 4.320312-16 5.519532-9.601562 15.839844-16 27.679688-16zm0 0" fill="#aab2bd"/><path d="m312 304v24h-32v-24c0-4.398438 3.601562-8 8-8h16c4.398438 0 8 3.601562 8 8zm0 0" fill="#fcd770"/><path d="m312 328v24c0 4.398438-3.601562 8-8 8h-16c-4.398438 0-8-3.601562-8-8v-24zm0 0" fill="#fcd770"/><g fill="#ff826e"><path d="m280 152h32v48h-32zm0 0"/><path d="m344 152v32c0 8.800781-7.199219 16-16 16h-16v-48zm0 0"/><path d="m280 152v48h-16c-8.800781 0-16-7.199219-16-16v-32zm0 0"/></g><path d="m416 424c-13.230469 0-24 10.769531-24 24v24c0 4.414062-3.585938 8-8 8h-72c-4.414062 0-8-3.585938-8-8v-24c13.230469 0 24-10.769531 24-24v-8h1.871094c12.082031 0 22.320312-9.039062 23.832031-21.144531l13.535156-123.511719c18.609375-3.421875 32.761719-19.757812 32.761719-39.34375v-48c0-22.054688-17.945312-40-40-40h-88v-104c0-22.054688-17.945312-40-40-40h-192c-22.054688 0-40 17.945312-40 40v368c0 22.054688 17.945312 40 40 40h192c13.703125 0 25.800781-6.945312 33.015625-17.480469 2.863281 10.054688 12.023437 17.480469 22.984375 17.480469v24c0 13.230469 10.769531 24 24 24h72c13.230469 0 24-10.769531 24-24v-24c0-4.414062 3.585938-8 8-8h80v-16zm-32-240v48c0 13.230469-10.769531 24-24 24h-104v16h95.078125l-13.261719 120.992188c-.503906 3.992187-3.921875 7.007812-7.945312 7.007812h-67.75c-4.023438 0-7.441406-3.015625-7.921875-6.886719l-15.03125-137.113281h-7.167969c-13.230469 0-24-10.769531-24-24v-48c0-13.230469 10.769531-24 24-24h8v24c0 13.230469 10.769531 24 24 24h64c13.230469 0 24-10.769531 24-24v-24h8c13.230469 0 24 10.769531 24 24zm-336 104h64v48h-64zm0-16v-96h64v-64h112v32.808594c-9.703125 1.976562-18.023438 7.566406-23.792969 15.191406h-56.207031v-32h-16v48h64.808594c-.527344 2.585938-.808594 5.265625-.808594 8v48c0 19.585938 14.152344 35.921875 32.761719 39.34375l7.085937 64.65625h-103.847656v-64zm0-112v-48h48v48zm256 32h-16v-32h16zm16-32h16v24c0 4.414062-3.585938 8-8 8h-8zm-48 32h-8c-4.414062 0-8-3.585938-8-8v-24h16zm-32-48v-48h-208v256h201.601562l1.75 16h-219.351562v-288h240v64zm-200-128h192c13.230469 0 24 10.769531 24 24v24h-240v-24c0-13.230469 10.769531-24 24-24zm192 416h-192c-13.230469 0-24-10.769531-24-24v-24h221.113281l1.199219 10.976562c1.183594 9.488282 7.871094 17.039063 16.589844 19.816407-2.949219 9.910156-12.046875 17.207031-22.902344 17.207031zm48-8v-8h32v8c0 4.414062-3.585938 8-8 8h-16c-4.414062 0-8-3.585938-8-8zm0 0"/><path d="m288 368h16c8.824219 0 16-7.175781 16-16v-48c0-8.824219-7.175781-16-16-16h-16c-8.824219 0-16 7.175781-16 16v48c0 8.824219 7.175781 16 16 16zm0-16v-16h16.007812l.007813 16zm16-48 .007812 16h-16.007812v-16zm0 0"/><path d="m112 32h48v16h-48zm0 0"/><path d="m176 32h16v16h-16zm0 0"/><path d="m80 32h16v16h-16zm0 0"/><path d="m120 400h32v16h-32zm0 0"/><path d="m64 304h32v16h-32zm0 0"/><path d="m64 128h16v16h-16zm0 0"/><path d="m160 128h48v16h-48zm0 0"/><path d="m144 240h-64v-48h-16v64h80zm0 0"/><path d="m112 208h32v-16h-48v32h16zm0 0"/><path d="m160 192h16v48h-16zm0 0"/><path d="m144 304h72v16h-72zm0 0"/><path d="m160 256h16v32h-16zm0 0"/></svg>