<?xml version="1.0" encoding="UTF-8"?>
<svg width="384px" height="378px" viewBox="0 0 384 378" version="1.1" xmlns="http://www.w3.org/2000/svg" xmlns:xlink="http://www.w3.org/1999/xlink">
    <g id="Page-1" stroke="none" stroke-width="1" fill="none" fill-rule="evenodd">
        <path d="M383.577519,188.71688 C383.577519,84.4908833 297.709296,0 191.786503,0 C85.8637095,0 0,84.4908833 0,188.71688 C0,292.936216 85.8637095,377.424879 191.786503,377.424879 C297.709296,377.424879 383.577519,292.936216 383.577519,188.71688" id="Fill-42" fill="#7A736D"></path>
        <path d="M383.582031,188.71688 C383.582031,84.4908833 297.713809,0 191.791016,0 L191.791016,377.424879 C297.713809,377.424879 383.582031,292.936216 383.582031,188.71688" id="Fill-43" fill="#746C67"></path>
        <g id="Group-64" transform="translate(72.203676, 37.742932)">
            <path d="M155.585385,234.403589 C155.585385,234.403589 208.991285,242.085385 216.875024,250.166813 C223.743399,257.20698 238.021676,324.620297 241.324994,339.413306 L120.688445,339.413306 L120.688445,243.68835 L155.585385,234.403589" id="Fill-44" fill="#26282B"></path>
            <polygon id="Fill-46" fill="#CFA185" points="92.6057278 260.142048 148.775675 260.142048 148.775675 199.542441 92.6057278 199.542441"></polygon>
            <path d="M120.690702,24.8903535 C147.958871,24.8903535 191.089286,40.1429383 191.089286,111.623611 C191.089286,152.894397 177.413459,179.931657 171.456655,187.411418 C165.973689,194.293953 135.151744,208.958192 120.690702,208.958192 L120.690702,24.8903535" id="Fill-47" fill="#E3BC9F"></path>
            <path d="M204.652295,128.665655 C205.854938,117.247308 200.324588,107.112221 192.30321,106.028776 C184.277321,104.945332 176.797471,113.326483 175.594828,124.74705 C174.392186,136.165397 179.924793,146.300485 187.948426,147.383929 C195.97206,148.465153 203.451909,140.086222 204.652295,128.665655" id="Fill-48" fill="#E3BC9F"></path>
            <path d="M120.690702,24.8903535 C93.4202755,24.8903535 50.2943734,40.1429383 50.2943734,111.623611 C50.2943734,152.894397 63.9679446,179.931657 69.9270043,187.411418 C75.4077146,194.293953 106.229659,208.958192 120.690702,208.958192 L120.690702,24.8903535" id="Fill-49" fill="#EFD4B6"></path>
            <path d="M36.7268513,128.665655 C35.5264652,117.247308 41.0545592,107.112221 49.0781927,106.028776 C57.1040826,104.945332 64.5839322,113.326483 65.7865747,124.74705 C66.9892172,136.165397 61.4588669,146.300485 53.432977,147.383929 C45.4115998,148.465153 37.9317502,140.086222 36.7268513,128.665655" id="Fill-50" fill="#EFD4B6"></path>
            <path d="M83.9615939,39.8343344 C83.9615939,39.8343344 60.1434061,67.6442147 69.2658894,93.5713887 C70.784423,124.48729 67.7450994,134.957624 57.6095084,143.434242 C60.1434061,113.517418 57.1040826,103.544403 45.9553837,107.034515 C41.3952703,83.598374 51.2330212,20.46777 83.9615939,39.8343344" id="Fill-51" fill="#501618"></path>
            <path d="M157.232531,39.8343344 C157.232531,39.8343344 181.052975,67.6442147 171.928236,93.5713887 C170.409702,124.48729 173.451282,134.957624 183.584617,143.434242 C181.052975,113.517418 184.092299,103.544403 195.240998,107.034515 C199.801111,83.598374 189.96336,20.46777 157.232531,39.8343344" id="Fill-52" fill="#501618"></path>
            <path d="M85.7937622,234.403589 C85.7937622,234.403589 32.390118,242.085385 24.5041227,250.166813 C17.635748,257.20698 3.35972732,324.620297 0.0586654871,339.413306 L120.688445,339.413306 L120.688445,243.68835 L85.7937622,234.403589" id="Fill-53" fill="#2B2F31"></path>
            <polyline id="Fill-54" fill="#B4C0C4" points="156.230705 232.993779 120.688445 240.160496 85.1506982 232.993779 120.688445 339.413306"></polyline>
            <polyline id="Fill-55" fill="#1D9588" points="117.730351 254.509471 111.924724 326.478581 120.688445 339.413306 129.452166 326.478581 123.651052 254.509471 117.730351 254.509471"></polyline>
            <path d="M95.0674219,278.933588 L66.8019389,237.680563 C74.5412705,234.920889 82.8424369,232.847248 91.574569,231.448539 L120.690702,339.413306 L79.8617789,281.895298 L95.0674219,278.933588" id="Fill-56" fill="#353940"></path>
            <path d="M146.318494,278.933588 L174.583977,237.680563 C166.844645,234.920889 158.543479,232.847248 149.811347,231.448539 L120.690702,339.413306 L161.521881,281.895298 L146.318494,278.933588" id="Fill-57" fill="#353940"></path>
            <polyline id="Fill-58" fill="#1D9588" points="130.277996 249.898172 120.690702 259.618087 111.105664 249.898172 120.690702 240.176037 130.277996 249.898172"></polyline>
            <polyline id="Fill-59" fill="#FFFFFF" points="120.688445 240.162716 149.204385 225.975814 163.906858 234.403589 133.380498 258.412534 120.688445 240.162716"></polyline>
            <polyline id="Fill-60" fill="#FFFFFF" points="120.692958 240.162716 92.1792748 225.975814 77.4745449 234.403589 107.484198 258.412534 120.692958 240.162716"></polyline>
            <path d="M187.982272,52.0319619 C176.763625,6.66717791 108.41382,-28.96437 60.3735554,42.2410013 C57.2913609,56.2858123 70.7144756,62.8708439 70.7144756,62.8708439 C70.7144756,62.8708439 79.6790134,42.2410013 120.789982,51.7611009 C141.264237,47.3584989 161.212759,44.0793041 170.416471,62.7043309 C179.62244,81.3293578 187.982272,52.0319619 187.982272,52.0319619" id="Fill-61" fill="#501618"></path>
            <path d="M161.036762,178.330913 C146.938994,178.330913 136.8553,167.061318 120.688445,167.061318 C104.521591,167.061318 94.4401525,178.330913 80.3401283,178.330913 C64.8862851,178.330913 55.1636088,152.119557 52.2280781,142.930263 C56.2128185,169.376957 65.3443272,186.694303 69.9270043,192.444549 C75.4077146,199.324864 106.227403,213.989103 120.690702,213.991323 C135.154001,213.989103 165.973689,199.324864 171.456655,192.444549 C176.037076,186.692082 185.175354,169.363636 189.157838,142.901401 C186.235845,152.064052 176.508656,178.330913 161.036762,178.330913" id="Fill-62" fill="#501618"></path>
            <path d="M120.692958,190.937052 C125.447119,190.937052 129.30099,188.961099 129.30099,186.52779 L112.084926,186.52779 C112.084926,188.961099 115.938797,190.937052 120.692958,190.937052" id="Fill-63" fill="#FFFFFF"></path>
        </g>
    </g>
</svg>